<?xml version="1.0" standalone="no"?>
<!DOCTYPE svg PUBLIC "-//W3C//DTD SVG 20010904//EN"
 "http://www.w3.org/TR/2001/REC-SVG-20010904/DTD/svg10.dtd">
<svg version="1.0" xmlns="http://www.w3.org/2000/svg"
 width="1080.000000pt" height="1080.000000pt" viewBox="0 0 1080.000000 1080.000000"
 preserveAspectRatio="xMidYMid meet">

<g transform="translate(0.000000,1080.000000) scale(0.100000,-0.100000)"
fill="#000000" stroke="none">
<path d="M5105 9889 c-1448 -71 -2791 -836 -3599 -2049 -521 -783 -780 -1645
-775 -2580 1 -113 5 -239 9 -280 5 -51 7 6 8 180 3 349 24 582 82 885 216
1135 843 2138 1775 2837 985 740 2210 1046 3450 863 821 -121 1639 -496 2280
-1044 777 -664 1296 -1529 1520 -2532 82 -365 110 -667 103 -1113 -4 -287 -3
-296 9 -191 17 137 19 637 4 795 -49 505 -141 896 -313 1330 -72 182 -243 524
-343 685 -465 754 -1096 1335 -1875 1730 -462 233 -1016 400 -1530 459 -150
18 -477 37 -585 34 -38 0 -137 -4 -220 -9z"/>
<path d="M5410 8309 c-905 -56 -1719 -517 -2207 -1249 -375 -563 -557 -1179
-557 -1885 0 -553 97 -989 320 -1442 273 -553 700 -994 1206 -1241 428 -210
967 -307 1503 -273 574 37 1031 206 1430 528 180 145 391 376 551 603 100 142
231 357 222 364 -2 2 -31 21 -64 44 l-61 41 -20 -22 c-11 -12 -55 -69 -99
-127 -255 -340 -533 -621 -764 -770 -482 -311 -1235 -374 -1855 -153 -55 19
-152 61 -216 92 -703 350 -1092 1044 -1158 2071 -18 281 -10 588 25 910 65
603 242 1107 522 1490 80 109 291 315 398 388 238 161 512 265 814 308 177 25
521 15 690 -21 300 -63 538 -173 771 -357 293 -231 520 -591 700 -1108 l57
-165 66 -3 c59 -3 66 -1 66 16 0 10 -11 176 -25 368 -13 192 -31 459 -40 594
-44 684 -67 996 -74 1003 -4 4 -41 7 -81 5 l-73 -3 -17 -63 c-43 -157 -146
-292 -249 -325 -29 -9 -65 -17 -80 -17 -49 0 -133 31 -276 100 -391 189 -705
276 -1088 300 -156 10 -157 10 -337 -1z"/>
<path d="M5684 6372 c-57 -9 -85 -93 -49 -148 15 -24 15 -28 -7 -72 -19 -39
-23 -63 -23 -137 0 -98 18 -152 68 -209 48 -55 43 -157 -10 -191 -14 -10 -60
-22 -102 -27 -119 -14 -132 -33 -211 -294 -28 -93 -62 -185 -75 -205 -38 -58
-321 -298 -385 -326 -81 -36 -130 -89 -130 -143 0 -42 30 -34 79 21 27 30 52
51 57 46 4 -4 -3 -18 -16 -32 -17 -18 -21 -28 -13 -36 15 -15 82 46 105 97 21
48 26 52 93 89 149 81 216 125 266 175 50 49 59 66 94 165 82 235 85 241 109
232 20 -8 21 -50 1 -67 -7 -6 -17 -31 -21 -56 -6 -40 -2 -50 40 -121 41 -69
46 -84 46 -137 0 -67 -25 -118 -70 -141 -15 -8 -71 -21 -123 -28 -116 -18
-165 -40 -244 -111 -65 -60 -90 -70 -106 -44 -15 23 -1 35 23 20 28 -17 32
-15 28 15 -2 17 -10 29 -21 31 -82 16 -108 -82 -31 -114 40 -17 37 -30 -12
-50 -26 -11 -39 -12 -55 -3 -19 10 -19 12 -5 28 22 24 20 31 -8 31 -31 0 -50
-24 -42 -54 5 -21 2 -24 -32 -30 -20 -3 -52 -6 -69 -6 -44 0 -41 -14 7 -49
l40 -29 -47 -23 c-28 -13 -48 -18 -50 -12 -15 44 -73 62 -108 33 -24 -20 -16
-75 10 -75 16 0 19 6 17 28 -4 31 17 37 38 12 22 -27 -3 -59 -71 -92 -74 -37
-104 -76 -95 -126 5 -30 2 -33 -37 -52 -58 -28 -89 -87 -97 -185 l-6 -75 -17
37 c-9 21 -17 53 -17 73 0 19 -4 35 -10 35 -20 0 -32 -44 -28 -98 4 -45 10
-60 32 -79 15 -13 36 -23 47 -23 30 0 22 -23 -14 -40 -30 -14 -32 -18 -35 -77
-2 -37 1 -63 7 -63 16 0 41 30 41 48 0 23 28 62 43 62 11 0 57 -59 57 -73 0
-4 -7 -7 -15 -7 -29 0 -75 -30 -90 -60 -32 -62 -9 -161 45 -190 20 -11 19 -12
-21 -60 -46 -55 -65 -66 -86 -49 -19 16 -12 32 18 39 35 9 30 34 -8 38 -55 5
-76 -54 -35 -100 21 -24 74 -23 97 2 10 11 21 20 24 20 3 0 4 -24 3 -54 -3
-50 -1 -57 31 -92 30 -33 39 -37 82 -37 40 0 52 4 72 27 48 57 20 149 -47 149
-54 0 -84 -69 -40 -93 21 -11 22 -10 24 29 1 30 19 37 40 16 21 -22 20 -37 -5
-69 -26 -33 -62 -34 -94 -1 -31 31 -34 95 -6 142 22 35 86 76 146 92 43 12
225 27 225 19 0 -22 -64 -113 -97 -137 -67 -49 -107 -119 -123 -220 -15 -87 6
-182 26 -119 4 12 30 47 59 78 29 30 59 68 67 84 l15 30 12 -23 c8 -14 10 -41
6 -76 -6 -44 -3 -62 14 -99 45 -92 73 -83 69 22 -2 37 1 62 7 62 17 0 55 -30
55 -43 0 -26 52 -88 90 -107 42 -22 90 -27 90 -9 0 17 -20 52 -47 80 l-25 27
129 -5 c95 -4 133 -9 146 -21 22 -19 22 -50 0 -74 -22 -25 -8 -36 24 -18 26
15 37 29 47 62 4 15 10 16 31 8 15 -6 46 -10 71 -10 37 0 51 6 85 37 l42 38
-5 -59 c-4 -52 -9 -63 -38 -89 -32 -29 -35 -29 -113 -24 -69 5 -78 3 -65 -9 8
-8 43 -20 79 -28 l64 -13 6 -54 c8 -70 23 -99 53 -99 35 0 47 21 59 105 8 61
13 75 26 73 12 -2 19 -24 28 -77 14 -82 25 -101 60 -101 28 0 53 48 53 104 0
37 21 66 49 66 9 0 42 15 73 33 48 30 57 32 73 20 42 -30 100 1 93 49 -4 30
-32 30 -36 0 -5 -32 -37 -25 -37 8 0 38 36 50 150 48 109 -1 159 12 206 58
l26 25 26 -81 c15 -45 27 -90 27 -101 0 -52 54 16 65 83 4 21 9 38 12 38 3 0
25 -18 50 -39 37 -33 115 -71 145 -71 18 0 6 38 -26 90 -19 30 -33 56 -31 59
2 2 25 -2 50 -8 97 -24 175 26 175 115 0 22 4 24 48 24 54 0 85 23 97 72 9 35
-6 61 -61 100 -39 28 -74 72 -74 92 0 3 16 -2 35 -11 32 -15 38 -15 95 2 33
10 60 22 60 26 0 12 -37 18 -91 16 -34 -1 -53 3 -68 17 -32 29 -26 36 24 29
53 -7 87 7 104 44 18 39 13 45 -20 21 -61 -45 -145 -21 -175 50 -9 20 -25 54
-35 75 -11 20 -17 37 -15 37 3 0 35 -19 71 -42 81 -50 143 -60 192 -29 44 28
62 86 42 138 -13 35 -28 46 -97 80 -2 0 1 25 7 55 12 68 4 141 -15 134 -9 -3
-19 7 -28 29 -12 28 -23 37 -59 47 -44 11 -45 12 -40 47 6 46 -28 99 -80 125
-35 16 -38 21 -31 45 32 108 -53 194 -145 147 -15 -8 -33 -21 -40 -30 -10 -12
-18 -13 -37 -4 -21 10 -23 16 -18 48 5 30 2 42 -15 59 -23 23 -79 28 -112 11
-10 -6 -19 -7 -20 -3 -1 4 -2 25 -3 45 -2 20 -10 48 -20 62 -18 28 -104 76
-136 76 -14 0 -20 7 -20 23 0 35 -27 67 -59 67 -33 0 -51 -16 -51 -47 0 -26
25 -32 34 -8 9 24 36 18 36 -9 0 -45 -23 -51 -103 -28 -39 11 -90 23 -112 27
-148 25 -187 183 -84 341 44 69 48 102 19 157 -23 42 -25 63 -9 73 22 13 49
-33 88 -154 72 -217 96 -247 276 -352 189 -110 184 -107 204 -153 17 -40 80
-107 101 -107 16 0 12 20 -10 47 -11 15 -19 28 -17 30 10 9 37 -12 66 -53 33
-45 57 -56 67 -29 18 45 -35 115 -115 153 -96 46 -365 279 -404 350 -14 26
-44 111 -66 190 -43 149 -76 228 -112 261 -14 13 -42 22 -78 26 -93 10 -108
15 -135 42 -22 21 -26 35 -26 81 0 47 5 63 40 114 48 72 60 112 60 203 0 56
-5 80 -27 122 -26 52 -26 53 -7 74 28 31 25 91 -6 124 -23 25 -30 27 -78 22
-30 -3 -64 -2 -75 2 -12 4 -32 5 -43 3z m258 -1079 c47 -42 5 -101 -94 -133
-37 -12 -84 -34 -105 -49 l-38 -28 -47 50 c-51 52 -58 76 -32 101 22 22 40 20
92 -10 34 -20 53 -25 79 -21 48 8 51 13 18 39 l-27 21 43 23 c53 28 86 30 111
7z m-283 -219 c18 -23 20 -35 15 -98 -4 -41 -2 -95 5 -128 13 -63 9 -93 -15
-102 -22 -8 -39 3 -25 17 15 15 14 47 -2 47 -36 0 -51 -65 -21 -94 19 -20 43
-20 71 -1 25 17 29 14 38 -35 8 -46 -5 -79 -61 -150 -73 -93 -69 -158 10 -178
l30 -8 -48 -52 c-89 -95 -225 -139 -304 -98 -54 28 -77 63 -77 118 0 42 4 53
28 74 15 13 37 24 47 24 57 0 103 -57 81 -99 -15 -26 -60 -39 -72 -20 -13 22
-11 30 11 36 11 3 20 14 20 24 0 24 -36 25 -62 2 -38 -34 -10 -98 49 -109 27
-5 37 -1 63 25 18 17 33 31 36 31 8 0 4 -52 -6 -71 -16 -29 15 -25 45 6 27 26
34 80 14 117 -9 16 -8 19 3 16 7 -2 22 -23 33 -46 23 -49 45 -55 45 -12 0 62
-80 120 -167 120 -17 0 -34 4 -37 9 -7 11 17 21 53 21 65 0 107 72 77 131 -20
40 -14 49 27 43 42 -5 59 -29 51 -71 -4 -19 -2 -33 4 -33 13 0 62 65 62 84 0
44 -43 76 -105 76 l-36 0 16 30 c8 16 15 49 15 73 0 28 6 49 16 58 8 7 25 31
36 53 17 32 19 52 15 101 -3 33 -9 68 -12 78 -11 26 11 20 34 -9z m205 -20 c7
-17 -10 -54 -24 -54 -6 0 -10 9 -10 21 0 14 -5 19 -17 17 -46 -9 -11 -81 36
-76 22 3 26 -2 31 -32 8 -45 30 -86 69 -128 63 -68 88 -153 71 -238 -14 -68
-43 -106 -79 -102 -22 3 -27 9 -29 38 -4 35 -4 35 17 16 17 -15 24 -17 34 -7
9 9 9 15 -1 29 -7 9 -17 28 -23 42 -6 14 -23 51 -39 83 -16 31 -27 57 -24 57
19 0 49 -28 75 -68 26 -41 29 -43 29 -20 0 65 -45 135 -101 159 -27 10 -29 15
-23 45 8 44 -2 84 -21 84 -9 0 -18 -13 -22 -30 -9 -46 -21 -46 -43 2 -28 62
-26 123 5 153 28 29 79 34 89 9z m-124 -196 c0 -6 31 -59 68 -117 90 -139 100
-165 77 -191 -24 -26 -32 -25 -39 5 -4 14 -25 65 -47 113 -46 98 -79 178 -79
192 0 6 5 10 10 10 6 0 10 -5 10 -12z m-250 -63 c0 -4 -7 -19 -15 -35 -8 -16
-20 -51 -26 -79 -12 -58 -33 -72 -51 -33 -26 55 -106 55 -128 1 -14 -33 -8
-54 23 -73 22 -14 34 1 19 24 -14 24 -6 50 17 50 44 0 57 -68 19 -94 -32 -23
-62 -20 -97 10 -26 21 -31 33 -31 67 0 77 56 132 157 156 44 10 113 14 113 6z
m639 -45 c32 -8 67 -24 87 -42 30 -26 34 -36 34 -77 0 -55 -25 -87 -77 -97
-57 -11 -102 35 -80 84 13 27 55 41 68 21 13 -21 11 -26 -12 -32 -27 -7 -20
-31 10 -35 53 -8 71 61 25 97 -31 25 -49 26 -87 6 -21 -11 -29 -11 -31 -2 -2
7 -8 28 -15 48 -15 47 -14 51 7 46 9 -3 41 -11 71 -17z m194 -25 c47 -22 127
-146 127 -195 0 -48 -15 -90 -32 -90 -9 0 -13 18 -13 58 -1 45 -7 68 -28 105
-16 26 -32 45 -36 43 -4 -3 -11 -42 -14 -87 -5 -63 -3 -88 9 -111 18 -35 12
-43 -38 -52 -39 -7 -51 7 -28 30 15 15 22 242 9 266 -10 19 -6 48 7 48 3 0 20
-7 37 -15z m-1136 -110 c1 -48 -1 -55 -18 -55 -31 0 -68 -44 -75 -89 l-6 -40
-29 15 c-16 8 -29 20 -29 27 0 6 -3 22 -6 33 -4 17 0 23 21 28 44 11 69 32
100 85 17 28 32 51 35 51 3 0 6 -25 7 -55z m307 -31 c36 -35 10 -79 -52 -89
-115 -18 -171 -56 -199 -136 l-18 -49 -33 33 c-61 58 -77 111 -46 155 19 27
57 26 62 0 2 -12 -6 -22 -24 -28 -24 -10 -26 -12 -12 -26 23 -24 67 -2 75 37
6 30 7 31 48 25 34 -6 47 -3 69 15 23 18 32 20 47 11 10 -7 26 -12 34 -12 20
0 19 27 -2 39 -14 8 -15 12 -4 25 17 20 35 20 55 0z m258 -99 c-7 -33 -12 -39
-29 -37 -17 2 -22 -3 -25 -25 -3 -31 -34 -44 -44 -19 -11 27 4 59 53 118 46
55 48 56 51 30 2 -15 -1 -45 -6 -67z m838 80 c7 -8 9 -22 6 -31 -6 -16 -8 -16
-25 0 -19 18 -31 12 -31 -15 0 -10 -12 -21 -30 -28 -35 -12 -35 -10 -14 34 22
47 71 68 94 40z m-422 -67 c36 1 43 -2 38 -14 -3 -9 -6 -32 -6 -51 0 -33 -1
-35 -27 -29 -32 8 -93 68 -93 92 0 13 5 15 23 9 12 -5 42 -8 65 -7z m656 -24
c37 -36 28 -98 -19 -131 -99 -68 -116 -96 -140 -217 -7 -41 -24 -94 -37 -118
l-23 -43 -5 70 c-6 86 -30 128 -87 156 -35 17 -48 19 -82 9 -79 -21 -105 -97
-52 -151 40 -39 93 -41 118 -3 15 24 15 29 2 53 -8 14 -25 27 -37 29 -26 4
-27 -1 -7 -32 14 -21 14 -25 0 -36 -12 -10 -20 -9 -40 4 -42 28 -28 89 23 101
72 15 125 -45 120 -136 -5 -71 -35 -114 -101 -145 -140 -64 -306 -26 -371 86
l-20 35 44 -38 c43 -36 119 -67 167 -67 39 0 113 22 107 31 -3 5 -28 9 -55 9
-56 0 -107 18 -156 56 -45 34 -42 46 7 27 30 -12 50 -14 82 -7 54 11 55 27 3
35 -51 7 -81 22 -127 67 -47 45 -48 55 -3 36 42 -17 124 -18 146 -1 47 36 52
105 10 148 -32 32 -47 35 -86 17 -46 -21 -46 -102 0 -114 13 -3 29 -3 34 1 19
11 12 35 -10 35 -29 0 -22 44 8 48 48 7 58 -81 12 -107 -56 -31 -163 30 -194
112 -11 28 -15 66 -13 112 l3 69 27 -41 c37 -57 78 -73 182 -73 l86 0 0 -41
c0 -45 16 -83 31 -74 5 4 9 17 9 31 l0 25 26 -20 c24 -19 74 -29 74 -15 0 3
-9 17 -20 31 -11 14 -20 28 -20 32 0 3 22 6 50 6 32 0 55 6 65 16 15 14 12 18
-34 37 -28 11 -51 26 -51 32 0 13 76 49 103 50 32 0 84 -30 96 -56 17 -38 13
-59 -16 -94 -25 -31 -29 -32 -80 -25 -44 5 -53 4 -53 -9 0 -9 16 -20 40 -27
56 -17 108 4 135 54 16 29 26 37 48 37 27 0 67 30 67 51 0 17 -20 49 -30 49
-6 0 -10 -11 -10 -24 0 -13 -6 -29 -14 -35 -12 -10 -18 -8 -31 12 -17 27 -8
70 17 80 27 11 67 7 82 -9z m-1017 -121 c6 -84 -9 -153 -44 -203 -16 -22 -17
-22 -24 -4 -19 48 -3 189 31 278 17 46 31 19 37 -71z m-787 62 c24 -8 50 -21
58 -28 13 -10 11 -13 -14 -18 -16 -4 -57 -7 -91 -8 -68 -1 -76 -10 -45 -47 21
-26 54 -44 81 -44 25 0 27 -13 6 -30 -17 -14 -41 -87 -32 -96 3 -3 16 1 29 10
39 28 58 21 58 -21 0 -39 31 -83 58 -83 10 0 12 -6 7 -17 -31 -75 -44 -153
-25 -153 14 0 59 51 80 92 25 47 43 126 35 156 -10 39 -85 53 -85 16 0 -8 10
-14 25 -14 30 0 34 -25 6 -40 -31 -16 -71 11 -71 49 0 36 69 62 115 45 26 -11
45 -60 45 -121 0 -108 -80 -235 -175 -279 -65 -31 -129 -31 -175 -2 l-35 23
55 5 c30 3 65 11 77 18 53 29 70 128 33 188 -55 88 -224 101 -296 22 -81 -88
-79 -218 6 -306 47 -48 120 -89 179 -98 59 -9 61 -24 3 -24 -151 0 -266 97
-287 240 -8 55 9 133 36 171 l20 29 -20 0 c-12 0 -38 -15 -59 -34 l-37 -35 0
-93 c0 -100 14 -139 70 -207 49 -57 4 -32 -65 37 -76 76 -92 112 -65 142 12
13 18 41 21 89 3 68 3 70 -17 58 -11 -6 -25 -26 -31 -44 -16 -44 -29 -31 -22
20 13 83 63 151 106 145 31 -4 30 -31 -2 -38 -39 -9 -32 -35 10 -35 28 0 37 5
48 28 11 22 19 27 51 27 44 0 86 28 95 64 5 22 10 24 46 19 33 -5 45 -2 65 17
14 13 25 31 25 40 0 23 -38 70 -55 70 -25 0 -28 -23 -5 -40 40 -30 7 -64 -44
-44 -8 3 -20 21 -26 40 -17 50 11 102 70 132 52 26 100 28 160 7z m963 -39
c-5 -28 -8 -105 -7 -171 0 -125 15 -194 55 -261 22 -37 24 -54 6 -54 -8 0 -24
-11 -36 -24 -27 -29 -27 -89 2 -94 13 -3 17 4 17 32 0 47 30 66 60 36 60 -60
-17 -164 -121 -164 -41 0 -55 5 -77 27 -26 26 -27 32 -26 120 1 77 7 107 34
182 40 114 50 236 26 338 -9 38 -16 72 -16 76 0 4 20 8 45 8 l45 0 -7 -51z
m-1233 -133 c0 -32 -4 -63 -8 -69 -30 -45 -97 -30 -97 21 0 21 6 31 18 33 15
3 17 -1 11 -22 -5 -22 -3 -26 15 -26 32 0 39 45 12 74 l-21 23 22 11 c43 20
48 15 48 -45z m2157 37 c53 -32 57 -104 8 -136 -33 -22 -73 -11 -81 21 -9 35
3 47 37 40 21 -5 29 -3 29 7 0 39 -57 51 -90 18 -42 -42 -6 -130 54 -130 14 0
27 -4 30 -9 8 -12 -21 -157 -38 -189 -8 -15 -26 -38 -41 -52 l-26 -25 25 55
c26 55 34 110 17 110 -25 0 -93 -107 -106 -168 -7 -33 -45 -62 -81 -62 -15 0
-13 5 8 28 45 48 74 122 48 122 -21 0 -107 -90 -125 -130 -10 -22 -27 -42 -37
-46 -42 -13 -184 25 -202 54 -3 5 20 15 55 21 88 18 140 43 203 100 32 29 66
51 79 51 36 0 85 36 107 79 11 22 20 43 20 47 0 14 -65 -7 -88 -29 l-24 -22 5
30 c3 17 9 50 13 75 19 131 111 195 201 140z m-1209 -141 c-5 -101 -4 -108 12
-99 29 16 82 82 103 129 25 56 33 39 17 -32 -27 -117 -82 -169 -184 -175 -51
-3 -65 0 -88 18 -37 29 -38 73 -2 97 26 17 27 17 50 -12 17 -22 26 -27 35 -18
8 8 8 18 -3 40 -18 38 -79 45 -114 12 -13 -12 -24 -27 -24 -33 0 -6 -4 -17 -9
-25 -7 -11 -19 -9 -69 9 -68 25 -87 41 -98 84 -7 28 -6 29 22 20 16 -5 61 -9
99 -9 75 1 135 25 207 85 18 15 37 26 42 23 5 -3 6 -55 4 -114z m1344 -36 c23
-20 23 -47 1 -69 -10 -10 -19 -29 -20 -43 -1 -14 -5 -39 -9 -54 -9 -39 16
-174 37 -193 21 -19 70 -23 76 -6 3 7 -8 17 -25 23 -37 13 -45 30 -26 58 20
27 61 27 91 -1 40 -38 22 -107 -33 -129 -30 -11 -72 5 -139 51 -25 17 -64 37
-87 46 -24 8 -49 16 -56 19 -8 3 -3 18 18 47 22 32 35 67 47 131 9 51 24 98
35 112 23 29 63 33 90 8z m-1172 -30 c0 -3 -7 -29 -16 -58 -11 -35 -25 -56
-44 -67 -32 -18 -141 -151 -128 -156 16 -7 53 7 90 32 l35 24 6 -62 c3 -33 5
-62 3 -63 -1 -1 -22 3 -46 8 -43 10 -120 7 -167 -7 l-23 -6 19 43 c10 24 22
63 26 87 9 54 -6 55 -58 5 -28 -27 -41 -34 -44 -25 -8 21 -64 82 -75 82 -18 0
-4 -190 16 -231 l18 -35 -30 -48 c-17 -27 -34 -61 -37 -77 -10 -46 -25 -23
-25 39 l0 56 -22 -21 c-29 -30 -36 -116 -14 -182 17 -52 19 -109 6 -151 l-7
-25 -7 30 c-4 17 -16 57 -27 90 -10 33 -23 79 -27 103 -9 53 -24 56 -36 7 -7
-26 -14 -34 -25 -30 -48 19 -70 17 -95 -8 -14 -15 -26 -35 -26 -46 0 -16 -7
-19 -46 -19 -81 0 -131 -72 -101 -145 24 -56 110 -73 144 -28 27 36 10 91 -29
91 -20 0 -24 -20 -7 -37 18 -18 3 -43 -25 -43 -36 0 -63 42 -50 78 20 56 101
62 154 12 26 -24 30 -35 30 -78 0 -86 -65 -140 -156 -129 -138 15 -198 182
-111 313 29 44 174 170 184 160 2 -2 -3 -19 -13 -37 -21 -41 -35 -89 -29 -99
3 -4 20 7 40 25 19 18 57 41 84 50 82 27 142 112 157 223 10 77 24 74 24 -5 0
-61 1 -65 14 -47 28 39 40 138 26 220 -6 42 -10 77 -8 79 10 10 100 -19 111
-36 14 -23 27 -25 27 -3 0 12 6 15 23 10 48 -15 104 -18 143 -7 60 16 123 66
143 112 14 34 31 52 31 32z m-923 -33 c76 -34 102 -111 55 -163 -41 -46 -113
-45 -135 1 -19 38 -10 62 24 69 38 7 32 27 -8 31 -42 4 -63 -27 -63 -93 0
-106 73 -171 185 -162 108 8 197 75 255 191 31 61 37 54 19 -24 -24 -106 -117
-197 -225 -221 -132 -30 -293 56 -324 172 -22 82 14 168 84 200 52 24 80 23
133 -1z m1901 -310 c70 -43 93 -133 50 -197 -20 -29 -28 -33 -68 -33 -26 0
-56 -7 -68 -16 -25 -17 -82 -91 -82 -106 0 -11 43 -10 74 2 23 8 26 7 26 -10
0 -11 -5 -20 -10 -20 -6 0 -22 -11 -35 -25 -22 -21 -25 -33 -25 -90 0 -48 4
-65 13 -65 17 0 48 33 62 66 10 23 10 23 35 4 20 -15 23 -21 13 -31 -7 -7 -13
-30 -13 -51 0 -31 5 -41 25 -50 19 -9 29 -8 50 6 26 17 33 40 14 51 -5 4 -18
0 -28 -9 -29 -26 -43 0 -15 28 53 54 114 -35 65 -95 -16 -20 -28 -24 -73 -24
-68 1 -141 40 -185 99 -34 44 -76 144 -87 207 -6 36 -6 36 34 43 50 8 71 45
48 86 -16 30 -61 35 -66 8 -2 -13 3 -18 17 -18 25 0 28 -28 5 -37 -28 -10 -47
11 -65 69 -9 31 -24 66 -33 79 -23 33 -20 39 18 39 29 0 36 -5 45 -30 11 -33
32 -44 104 -54 48 -7 48 -7 37 16 -7 13 -24 35 -38 51 l-26 27 28 0 c16 0 41
-11 58 -25 16 -14 38 -25 48 -25 9 0 23 -7 30 -15 20 -24 30 -18 30 18 0 23
-8 41 -26 58 -25 23 -29 24 -180 22 -92 -1 -152 2 -149 8 4 5 23 9 43 10 20 0
69 11 107 24 89 29 150 31 193 5z m-413 -85 c20 -25 47 -69 61 -99 32 -71 58
-206 49 -262 -6 -45 -9 -47 -76 -58 -20 -4 -54 -19 -76 -35 -54 -39 -98 -61
-123 -61 -30 0 -24 -17 11 -29 47 -16 145 -14 180 5 29 14 30 14 21 -3 -26
-47 -91 -81 -169 -88 -130 -12 -220 66 -210 179 4 40 11 55 36 78 35 32 81 37
105 12 31 -31 15 -64 -31 -64 -27 0 -34 -4 -31 -17 5 -28 69 -30 93 -3 21 23
24 82 5 105 -21 26 -75 37 -119 25 -104 -28 -133 -174 -55 -275 l34 -45 -27
-11 c-18 -7 -36 -6 -56 1 -36 12 -77 -9 -77 -40 0 -24 17 -26 41 -4 36 32 54
-11 19 -46 -27 -27 -75 -25 -136 5 -52 26 -124 81 -124 95 0 5 27 8 61 7 57
-2 62 0 90 31 21 24 29 42 29 70 l-1 37 -23 -26 c-48 -55 -102 -64 -141 -25
-72 72 -18 168 150 266 l40 23 -25 -27 c-14 -15 -46 -43 -71 -62 -101 -74
-108 -193 -11 -182 36 4 36 32 0 36 -46 5 -38 47 18 96 119 106 152 144 194
228 23 47 45 107 47 132 6 54 23 52 23 -3 0 -62 -27 -133 -76 -196 -73 -96
-98 -166 -78 -219 11 -28 22 -17 29 30 7 47 23 66 138 169 38 34 47 49 56 95
7 34 8 77 3 113 -10 65 0 75 19 20 18 -57 14 -143 -9 -197 -25 -55 -9 -64 32
-16 46 55 47 161 1 252 -29 58 -19 61 28 8 71 -78 107 -183 107 -313 0 -43 4
-76 9 -73 17 11 34 127 28 196 -6 74 -45 176 -78 206 -11 9 -19 21 -19 26 0
15 48 -23 85 -67z m-628 36 c51 -24 73 -63 73 -131 0 -88 -44 -140 -117 -140
-47 0 -76 19 -93 60 -21 51 21 120 64 104 16 -6 28 -34 24 -55 -2 -7 5 -15 14
-17 12 -2 19 5 24 23 15 59 -63 106 -123 74 -20 -11 -26 -10 -44 10 -11 12
-34 24 -50 28 -16 3 -29 9 -29 13 0 7 41 29 80 43 36 13 137 6 177 -12z m293
-14 c0 -29 -30 -110 -52 -143 -32 -47 -148 -107 -148 -76 0 4 7 26 15 50 11
32 13 53 5 85 -5 23 -10 45 -10 50 0 4 26 7 58 7 39 0 66 6 87 19 36 24 45 25
45 8z m-1520 -22 c54 -28 66 -84 25 -111 -32 -21 -75 -6 -75 26 0 24 16 26 28
4 11 -20 32 -10 32 15 0 40 -49 54 -82 24 -56 -50 19 -140 95 -113 38 13 56
37 57 76 0 17 3 33 6 36 3 4 32 -3 65 -14 49 -16 77 -19 166 -15 60 3 122 8
138 12 l30 6 -25 -22 c-53 -47 -129 -73 -225 -76 -49 -2 -130 -14 -178 -26
l-88 -22 -37 20 c-52 28 -72 85 -48 137 11 22 29 41 44 47 37 13 39 13 72 -4z
m1022 -62 c31 -28 18 -93 -19 -93 -7 0 -13 11 -13 26 0 33 -33 29 -38 -4 -5
-33 15 -52 57 -52 29 0 41 -7 64 -35 16 -21 43 -39 67 -46 22 -7 40 -14 40
-16 0 -2 -11 -19 -25 -37 -13 -18 -30 -56 -36 -84 l-12 -52 -89 87 c-104 104
-132 154 -125 227 3 38 11 55 31 73 32 27 72 30 98 6z m1338 -128 c0 -52 -2
-55 -24 -55 -45 0 -71 -50 -47 -89 15 -24 42 -5 35 24 -5 20 -3 25 14 25 20 0
32 -18 32 -50 0 -53 -84 -69 -119 -24 -28 35 -26 63 5 110 23 35 93 114 101
114 2 0 3 -25 3 -55z m-1376 -198 c46 -45 89 -92 95 -104 31 -61 -5 -140 -74
-163 -69 -23 -145 27 -145 96 0 34 24 69 41 58 6 -3 14 -17 20 -31 11 -31 29
-21 29 16 0 34 -21 54 -56 54 -38 0 -65 -34 -71 -86 l-5 -45 -100 -7 c-55 -4
-102 -4 -105 -1 -4 3 1 6 11 6 25 0 88 34 120 66 44 45 68 101 82 199 19 125
21 129 50 72 14 -26 62 -85 108 -130z m-358 142 c3 -6 1 -15 -6 -19 -7 -4 -10
-15 -7 -24 5 -14 11 -15 27 -6 23 12 22 15 45 -76 8 -34 15 -82 15 -106 0 -41
-3 -46 -39 -66 -36 -21 -71 -29 -71 -17 0 3 9 18 21 34 22 31 35 96 25 134 -3
13 -19 41 -36 62 -16 21 -30 45 -30 54 0 33 41 54 56 30z m1870 -131 c14 -44
-58 -76 -101 -44 -17 12 -17 14 -2 37 10 13 17 36 17 51 l0 28 40 -26 c22 -14
42 -35 46 -46z m-2267 -52 c-9 -51 -35 -100 -69 -131 -20 -18 -20 -18 -20 12
0 42 25 110 56 151 33 43 45 31 33 -32z m1077 -336 c36 -16 44 -24 33 -31 -30
-19 -126 -2 -168 30 -21 16 -23 23 -17 65 l7 47 49 -44 c27 -25 71 -54 96 -67z"/>
<path d="M9943 4705 c0 -22 2 -30 4 -17 2 12 2 30 0 40 -3 9 -5 -1 -4 -23z"/>
<path d="M1495 3720 c8 -36 -12 -51 -218 -169 -210 -121 -235 -133 -259 -120
-25 13 -23 8 24 -79 58 -109 85 -142 132 -163 121 -55 236 23 236 160 l0 37
63 -4 c60 -4 66 -2 99 27 42 36 53 84 34 139 -14 38 -72 141 -100 177 -16 19
-16 19 -11 -5z m68 -142 c20 -40 12 -75 -25 -115 -31 -33 -101 -58 -126 -44
-25 13 -62 64 -62 84 0 15 168 118 185 114 6 -2 18 -19 28 -39z m-228 -112
c20 -30 30 -87 21 -120 -3 -14 -20 -42 -38 -61 -80 -92 -168 -86 -213 15 -14
31 -16 46 -8 58 11 19 191 130 210 131 7 1 20 -10 28 -23z"/>
<path d="M9115 3569 c-52 -92 -53 -97 -21 -71 l28 21 46 -23 c91 -46 367 -208
390 -229 12 -11 22 -30 22 -41 0 -20 2 -20 20 4 11 14 20 28 20 32 0 4 20 39
44 77 25 38 54 88 66 112 l22 43 -37 34 c-40 37 -57 37 -31 0 23 -32 20 -56
-14 -115 -36 -63 -58 -77 -96 -63 -33 13 -314 173 -372 213 -37 24 -43 33 -38
53 11 43 -8 25 -49 -47z"/>
<path d="M1755 3223 c0 -42 -11 -87 -39 -163 -64 -174 -70 -183 -158 -250 -81
-61 -104 -70 -126 -48 -7 7 -12 9 -12 4 0 -12 112 -148 117 -142 3 3 0 12 -6
20 -21 25 -4 52 70 111 88 71 110 80 247 99 139 20 189 20 225 2 15 -8 27 -12
27 -10 0 3 -17 27 -37 52 -21 26 -38 49 -40 51 -1 2 -10 -6 -20 -17 -15 -18
-43 -25 -152 -42 -73 -11 -136 -19 -138 -17 -2 3 19 64 48 137 37 95 57 134
70 137 11 3 19 9 19 13 0 7 -88 120 -93 120 -1 0 -2 -26 -2 -57z"/>
<path d="M8800 3087 c0 -7 68 -121 151 -252 143 -228 150 -242 146 -282 -3
-24 -3 -43 -1 -43 5 0 94 118 94 125 0 3 -8 1 -18 -4 -25 -13 -41 2 -96 87
l-47 73 32 42 c18 23 43 54 56 68 l24 26 92 -28 c51 -16 100 -33 110 -39 14
-9 23 -5 45 21 15 18 36 46 47 63 l20 31 -25 -18 c-46 -32 -54 -30 -428 84
-106 32 -195 59 -198 59 -2 0 -4 -6 -4 -13z m205 -114 c44 -14 83 -28 87 -32
8 -7 -70 -111 -83 -111 -9 0 -119 163 -119 175 0 4 8 4 18 0 9 -3 53 -18 97
-32z"/>
<path d="M8403 2613 c-35 -20 -203 -173 -203 -185 0 -4 12 -2 26 4 26 12 31 8
192 -157 181 -186 206 -218 191 -247 -19 -34 7 -18 71 47 35 36 59 65 53 65
-7 0 -15 -4 -18 -10 -16 -26 -54 -7 -123 63 l-73 74 39 35 39 35 114 -18 c179
-29 192 -27 262 39 41 40 50 62 15 37 -46 -32 -90 -36 -214 -20 -161 21 -154
18 -154 74 0 130 -118 219 -217 164z m80 -57 c66 -28 126 -122 108 -169 -10
-26 -78 -87 -96 -87 -6 0 -51 43 -99 96 l-89 95 29 31 c47 49 89 59 147 34z"/>
<path d="M2310 2603 c0 -4 7 -17 15 -27 8 -11 15 -26 15 -33 0 -7 -43 -133
-95 -279 -52 -147 -95 -276 -95 -286 0 -26 -2 -27 297 118 227 111 262 125
293 119 l35 -7 -55 51 c-58 53 -77 63 -61 32 8 -14 6 -22 -7 -34 -24 -21 -402
-221 -407 -215 -3 2 33 103 78 224 l83 219 30 -2 c28 -2 27 0 -31 53 -63 57
-95 80 -95 67z"/>
<path d="M7900 2199 c-62 -45 -71 -58 -37 -52 19 4 31 -4 54 -34 64 -81 262
-364 268 -384 4 -11 1 -27 -6 -35 -6 -8 -9 -17 -6 -20 4 -5 147 94 147 102 0
2 -12 1 -27 -2 -37 -7 -53 10 -208 227 -112 154 -125 178 -121 207 3 17 2 32
-2 32 -4 -1 -32 -19 -62 -41z"/>
<path d="M2800 1879 c-124 -94 -234 -175 -245 -179 -11 -4 -30 -4 -42 1 -35
13 -28 -8 10 -27 17 -9 43 -25 56 -35 31 -25 44 -24 31 1 -11 21 3 38 97 112
l53 40 67 -43 c38 -24 71 -47 74 -52 5 -8 -31 -183 -45 -218 -5 -11 8 -26 50
-53 31 -21 59 -35 62 -31 4 3 1 9 -5 13 -7 4 -16 20 -22 34 -11 29 -6 62 67
410 36 172 39 199 23 198 -3 0 -107 -77 -231 -171z m140 -39 c-13 -55 -27
-100 -32 -100 -18 0 -108 66 -106 77 3 14 150 134 156 128 3 -2 -6 -49 -18
-105z"/>
<path d="M7518 1939 c-79 -40 -98 -56 -54 -45 32 8 44 -5 94 -102 32 -61 39
-82 29 -90 -36 -28 -280 -143 -288 -135 -5 5 -27 46 -49 92 -38 79 -40 85 -25
107 21 32 12 30 -76 -13 -70 -36 -72 -38 -42 -41 17 -2 36 -9 41 -15 23 -28
222 -434 222 -452 0 -12 -5 -26 -12 -33 -20 -20 -2 -14 77 25 80 40 93 52 46
45 -22 -3 -32 2 -48 25 -24 33 -116 214 -111 218 6 6 288 145 293 145 10 0
115 -223 115 -244 0 -12 -5 -27 -12 -34 -7 -7 -9 -12 -5 -12 10 0 167 79 167
84 0 3 -15 2 -34 -1 -43 -7 -39 -12 -178 264 -101 199 -102 202 -83 223 10 11
16 22 14 24 -2 2 -39 -14 -81 -35z"/>
<path d="M3356 1558 c-110 -273 -119 -292 -147 -285 -10 3 -19 2 -19 -2 0 -9
149 -65 156 -58 3 3 -4 8 -15 12 -43 13 -38 37 68 325 21 58 42 105 45 105 4
0 31 -64 61 -142 68 -180 120 -309 157 -392 24 -55 31 -62 42 -50 8 8 53 112
100 233 109 274 110 276 143 276 36 0 25 9 -54 40 -71 29 -92 30 -55 4 12 -8
22 -21 22 -27 1 -19 -144 -407 -151 -407 -3 0 -25 51 -47 113 -79 214 -191
492 -200 495 -5 1 -52 -107 -106 -240z"/>
<path d="M4248 1491 c15 -15 20 -29 17 -44 -3 -12 -25 -110 -50 -217 -24 -107
-48 -206 -51 -220 -9 -32 -33 -60 -52 -60 -32 0 2 -15 71 -32 88 -21 111 -22
75 -2 -38 20 -37 36 18 271 57 247 64 267 92 271 12 2 22 7 22 11 0 7 -28 15
-140 38 l-25 6 23 -22z"/>
<path d="M6360 1488 c-51 -27 -78 -60 -89 -110 -9 -39 6 -97 33 -127 15 -17
14 -22 -19 -76 -41 -69 -46 -126 -15 -189 57 -118 229 -127 338 -18 l45 45 52
-17 c28 -9 63 -16 76 -16 24 0 129 27 119 30 -3 1 -25 4 -50 7 -25 2 -70 14
-100 26 -62 25 -62 26 -40 131 16 81 9 106 -33 105 -17 -1 -43 -4 -57 -8 l-25
-7 32 -11 c25 -9 33 -19 39 -48 6 -34 0 -102 -10 -112 -14 -14 -249 141 -301
198 -48 53 -51 118 -9 157 46 41 129 25 157 -31 l16 -32 0 37 c1 20 -3 48 -9
62 -8 23 -15 26 -58 26 -30 0 -64 -8 -92 -22z m230 -441 l33 -18 -24 -26 c-31
-33 -95 -63 -138 -63 -54 0 -108 37 -136 94 -30 60 -31 78 -5 133 l19 42 109
-72 c60 -40 124 -80 142 -90z"/>
<path d="M4646 1390 c-22 -56 -20 -67 9 -40 23 21 30 22 105 17 45 -3 84 -7
86 -10 8 -8 -54 -485 -66 -507 -6 -11 -18 -20 -27 -20 -11 0 -13 -3 -8 -9 6
-5 48 -11 95 -14 47 -3 75 -3 62 -1 -38 9 -44 35 -32 142 26 227 49 394 53
398 7 7 137 -15 158 -27 11 -5 19 -19 19 -29 0 -11 4 -20 9 -20 10 0 24 77 16
91 -4 5 -26 9 -50 9 -62 0 -347 37 -379 50 -15 5 -29 10 -31 10 -1 0 -10 -18
-19 -40z"/>
<path d="M5497 1373 c-2 -4 -39 -114 -82 -243 -98 -299 -111 -329 -141 -336
-40 -10 -28 -27 14 -20 20 3 55 6 77 6 32 1 37 3 23 11 -10 5 -18 21 -18 33 0
30 38 157 53 174 7 9 34 12 91 10 l80 -3 38 -89 c21 -50 38 -98 38 -108 0 -16
9 -18 78 -18 73 1 76 1 46 14 -50 22 -53 27 -219 426 -57 136 -69 159 -78 143z
m45 -230 c20 -51 33 -95 30 -98 -3 -3 -36 -5 -74 -5 -67 0 -69 1 -63 23 33
113 59 186 65 180 4 -4 23 -49 42 -100z"/>
</g>
</svg>
